<svg width="600" height="450" viewBox="0 0 600 450" fill="none" xmlns="http://www.w3.org/2000/svg">
  <defs>
    <linearGradient id="bgCinnamon" x1="0" y1="0" x2="1" y2="1">
      <stop offset="0" stop-color="#FEF3C7"/>
      <stop offset="1" stop-color="#FFEDD5"/>
    </linearGradient>
    <linearGradient id="spoonCinnamon" x1="0" y1="0" x2="1" y2="0">
      <stop offset="0" stop-color="#B45309"/>
      <stop offset="1" stop-color="#92400E"/>
    </linearGradient>
  </defs>
  <rect width="600" height="450" rx="40" fill="url(#bgCinnamon)"/>
  <circle cx="470" cy="120" r="90" fill="#F97316" fill-opacity="0.15"/>
  <rect x="60" y="180" width="340" height="130" rx="60" fill="#FDE68A" stroke="#FBBF24" stroke-width="3"/>
  <ellipse cx="230" cy="200" rx="130" ry="40" fill="#F59E0B"/>
  <ellipse cx="230" cy="200" rx="120" ry="32" fill="#FDBA74"/>
  <ellipse cx="230" cy="200" rx="90" ry="24" fill="#B45309" fill-opacity="0.9"/>
  <ellipse cx="230" cy="196" rx="70" ry="18" fill="#D97706" fill-opacity="0.95"/>
  <rect x="310" y="170" width="210" height="26" rx="13" fill="url(#spoonCinnamon)"/>
  <circle cx="520" cy="183" r="23" fill="#D97706"/>
  <circle cx="520" cy="183" r="17" fill="#FBBF24"/>
  <path d="M160 240C186 254 214 262 244 262C274 262 302 254 328 240" stroke="#92400E" stroke-width="5" stroke-linecap="round" stroke-opacity="0.7"/>
  <path d="M170 260C194 272 219 278 244 278C270 278 294 272 318 260" stroke="#B45309" stroke-width="4" stroke-linecap="round" stroke-opacity="0.6"/>
  <rect x="190" y="305" width="80" height="26" rx="13" fill="#ECFDF5"/>
  <text x="230" y="323" text-anchor="middle" font-family="system-ui, -apple-system, BlinkMacSystemFont, 'Segoe UI', sans-serif" font-size="12" font-weight="600" fill="#B45309">
    Ceylon Cinnamon
  </text>
</svg>

