<svg width="600" height="450" viewBox="0 0 600 450" fill="none" xmlns="http://www.w3.org/2000/svg">
  <defs>
    <linearGradient id="bgCurry" x1="0" y1="0" x2="1" y2="1">
      <stop offset="0" stop-color="#FEF3C7"/>
      <stop offset="1" stop-color="#DCFCE7"/>
    </linearGradient>
  </defs>
  <rect width="600" height="450" rx="40" fill="url(#bgCurry)"/>
  <circle cx="140" cy="120" r="80" fill="#F97316" fill-opacity="0.16"/>
  <circle cx="470" cy="150" r="80" fill="#22C55E" fill-opacity="0.16"/>
  <ellipse cx="210" cy="260" rx="120" ry="60" fill="#FDE68A"/>
  <ellipse cx="210" cy="254" rx="106" ry="50" fill="#FCD34D"/>
  <ellipse cx="210" cy="248" rx="82" ry="36" fill="#F97316" fill-opacity="0.9"/>
  <ellipse cx="390" cy="260" rx="120" ry="60" fill="#ECFDF5"/>
  <ellipse cx="390" cy="254" rx="108" ry="50" fill="#DCFCE7"/>
  <ellipse cx="390" cy="248" rx="86" ry="36" fill="#16A34A" fill-opacity="0.9"/>
  <path d="M210 214C226 198 248 190 272 190" stroke="#B45309" stroke-width="4" stroke-linecap="round" stroke-opacity="0.7"/>
  <path d="M390 214C406 198 428 190 452 190" stroke="#15803D" stroke-width="4" stroke-linecap="round" stroke-opacity="0.7"/>
  <rect x="160" y="320" width="280" height="34" rx="17" fill="#111827" fill-opacity="0.9"/>
  <text x="300" y="342" text-anchor="middle" font-family="system-ui, -apple-system, BlinkMacSystemFont, 'Segoe UI', sans-serif" font-size="13" font-weight="600" fill="#F9FAFB">
    Sri Lankan Curry Powder Blend
  </text>
</svg>

