<svg width="800" height="1000" viewBox="0 0 800 1000" fill="none" xmlns="http://www.w3.org/2000/svg">
  <defs>
    <linearGradient id="heroBg" x1="0" y1="0" x2="1" y2="1">
      <stop offset="0" stop-color="#DCFCE7"/>
      <stop offset="1" stop-color="#BBF7D0"/>
    </linearGradient>
    <radialGradient id="heroGlow" cx="0.2" cy="0" r="1">
      <stop offset="0" stop-color="#22C55E" stop-opacity="0.6"/>
      <stop offset="1" stop-color="#22C55E" stop-opacity="0"/>
    </radialGradient>
  </defs>
  <rect width="800" height="1000" rx="60" fill="url(#heroBg)"/>
  <rect width="800" height="1000" rx="60" fill="url(#heroGlow)"/>
  <circle cx="190" cy="360" r="120" fill="#F97316" fill-opacity="0.18"/>
  <circle cx="600" cy="280" r="110" fill="#16A34A" fill-opacity="0.15"/>
  <circle cx="430" cy="640" r="140" fill="#A16207" fill-opacity="0.12"/>
  <rect x="140" y="520" width="220" height="140" rx="40" fill="#FEF3C7" stroke="#FDBA74" stroke-width="3"/>
  <rect x="320" y="420" width="220" height="150" rx="44" fill="#FFEDD5" stroke="#F97316" stroke-width="3"/>
  <rect x="460" y="560" width="220" height="150" rx="44" fill="#ECFDF5" stroke="#22C55E" stroke-width="3"/>
  <path d="M180 544C210 520 250 520 280 540" stroke="#B45309" stroke-width="6" stroke-linecap="round"/>
  <path d="M190 570C220 548 248 548 276 568" stroke="#92400E" stroke-width="5" stroke-linecap="round"/>
  <path d="M340 446C368 430 404 430 432 446" stroke="#F97316" stroke-width="6" stroke-linecap="round"/>
  <path d="M348 472C377 455 402 456 428 470" stroke="#EA580C" stroke-width="5" stroke-linecap="round"/>
  <path d="M486 588C514 570 550 568 578 584" stroke="#16A34A" stroke-width="6" stroke-linecap="round"/>
  <path d="M492 614C520 594 546 592 572 606" stroke="#15803D" stroke-width="5" stroke-linecap="round"/>
  <circle cx="260" cy="582" r="10" fill="#F97316"/>
  <circle cx="250" cy="604" r="7" fill="#B45309"/>
  <circle cx="396" cy="474" r="9" fill="#F97316"/>
  <circle cx="386" cy="496" r="7" fill="#EA580C"/>
  <circle cx="552" cy="624" r="9" fill="#22C55E"/>
  <circle cx="540" cy="646" r="7" fill="#16A34A"/>
  <rect x="150" y="720" width="500" height="90" rx="32" fill="#047857" fill-opacity="0.1"/>
  <text x="400" y="777" text-anchor="middle" font-family="system-ui, -apple-system, BlinkMacSystemFont, 'Segoe UI', sans-serif" font-size="32" font-weight="600" fill="#064E3B">
    Pure Sri Lankan Spices
  </text>
</svg>

